<?xml version="1.0" encoding="UTF-8" standalone="no"?>
<!-- Created with Inkscape (http://www.inkscape.org/) -->

<svg
   version="1.1"
   id="svg1"
   width="796"
   height="748"
   viewBox="0 0 796 748"
   sodipodi:docname="iconPlaceholder.svg"
   inkscape:version="1.4.3 (0d15f75, 2025-12-25)"
   xmlns:inkscape="http://www.inkscape.org/namespaces/inkscape"
   xmlns:sodipodi="http://sodipodi.sourceforge.net/DTD/sodipodi-0.dtd"
   xmlns="http://www.w3.org/2000/svg"
   xmlns:svg="http://www.w3.org/2000/svg">
  <defs
     id="defs1" />
  <sodipodi:namedview
     id="namedview1"
     pagecolor="#ffffff"
     bordercolor="#000000"
     borderopacity="0.25"
     inkscape:showpageshadow="2"
     inkscape:pageopacity="0.0"
     inkscape:pagecheckerboard="0"
     inkscape:deskcolor="#d1d1d1"
     inkscape:zoom="0.84759358"
     inkscape:cx="398.18612"
     inkscape:cy="374"
     inkscape:window-width="1440"
     inkscape:window-height="878"
     inkscape:window-x="-6"
     inkscape:window-y="-6"
     inkscape:window-maximized="1"
     inkscape:current-layer="g1" />
  <g
     inkscape:groupmode="layer"
     inkscape:label="Image"
     id="g1">
    <path
       style="fill:#000000"
       d="m 369.65773,673.41052 c -18.89187,-1.18246 -31.97495,-2.76253 -40.5,-4.89128 -4.125,-1.03004 -11.325,-2.58325 -16,-3.45159 -12.50602,-2.32287 -25.14587,-6.69391 -48.5,-16.772 -8.25943,-3.56422 -31.66469,-17.31453 -39.5,-23.20577 -3.025,-2.27445 -7.3,-5.21577 -9.5,-6.53628 -12.17036,-7.30501 -38.93504,-32.45473 -50.5,-47.45287 -2.475,-3.20973 -6.6375,-8.32407 -9.25,-11.36521 -2.6125,-3.04114 -4.75,-5.84746 -4.75,-6.23625 0,-0.3888 -1.36843,-2.42885 -3.04095,-4.53345 -8.61851,-10.84498 -30.1505,-51.4929 -35.31751,-66.67208 -0.80062,-2.35201 -2.84114,-7.75959 -4.53448,-12.01684 -2.87842,-7.2367 -4.21876,-12.40828 -7.06497,-27.25955 -0.63244,-3.3 -1.793052,-8.7 -2.579132,-12 -5.60387,-23.52528 -5.88007,-94.63954 -0.44859,-115.5 1.07403,-4.125 3.312972,-13.125 4.975402,-20 1.66244,-6.875 5.5178,-18.575 8.56747,-26 3.04966,-7.425 6.72655,-16.425 8.17086,-20 2.89274,-7.16019 21.65683,-39.1665 26.67493,-45.5 1.74308,-2.2 4.01885,-5.35 5.05725,-7 6.09203,-9.68012 23.72276,-27.76438 41.53972,-42.6083 9.03805,-7.5299 26.11807,-21.13309 32,-25.48604 11.03489,-8.16641 42.68898,-25.83464 50,-27.9083 1.375,-0.38999 5.875,-2.38817 10,-4.44039 4.125,-2.05221 9.75,-4.31083 12.5,-5.01915 2.75,-0.70832 11.075,-2.97143 18.5,-5.02914 16.45074,-4.559019 20.40576,-5.361089 39.5,-8.010479 8.25,-1.14472 16.575,-2.51009 18.5,-3.03417 5.86647,-1.59714 26.40444,-1.10643 38.88891,0.92916 6.3861,1.04126 16.33609,2.42867 22.11109,3.08314 14.13976,1.60242 25.1681,3.80428 33,6.588609 3.575,1.27095 10.55,3.29461 15.5,4.49703 4.95,1.20241 11.10079,3.24435 13.66842,4.53763 2.56762,1.29327 9.1519,4.13763 14.63171,6.32078 19.59103,7.80504 46.35656,23.49949 61.90167,36.29718 27.44857,22.59736 36.28234,30.89277 51.02975,47.91989 10.79666,12.46564 29.63751,40.7518 32.92033,49.42397 0.40362,1.06622 1.9986,3.94161 3.5444,6.38975 1.54581,2.44815 3.66209,6.72315 4.70285,9.5 1.04077,2.77686 3.0677,7.61507 4.50429,10.75159 4.34111,9.47797 13.47325,36.82203 15.65152,46.86482 1.12524,5.18783 2.67725,11.90742 3.44891,14.93242 6.02612,23.62309 6.30778,84.06391 0.50562,108.5 -1.04474,4.4 -2.83598,13.10056 -3.98052,19.33458 -1.15117,6.27015 -3.17384,13.49125 -4.52689,16.16136 -1.34526,2.65473 -3.34602,8.07492 -4.44615,12.04488 -4.17381,15.06169 -20.90485,45.61738 -34.47386,62.95918 -1.93655,2.475 -6.95956,9.18225 -11.16223,14.905 -22.91308,31.20056 -54.25315,59.83008 -86.2758,78.81396 -24.04993,14.25743 -26.20863,15.37886 -36.95679,19.19877 -5.87798,2.08903 -13.83723,4.94104 -17.68723,6.3378 -3.85,1.39675 -10.825,3.48175 -15.5,4.63333 -4.675,1.15157 -10.975,2.744 -14,3.53874 -15.11417,3.9708 -57.67397,5.58276 -91.5,3.46557 z m 173.1726,-91.5421 c 4.1032,-1.94709 10.3274,-10.64852 10.3274,-14.43768 0,-4.62645 -11.00611,-16.78087 -43,-47.4864 -6.875,-6.59815 -24.65,-24.51859 -39.5,-39.82319 -28.59804,-29.47351 -40.44552,-41.44128 -43.58065,-44.02315 -3.7489,-3.08734 -2.56905,-7.97954 3.34093,-13.85293 7.10919,-7.06518 20.82813,-22.20189 25.13061,-27.72772 6.80856,-8.74447 20.42884,-20.24621 25.54785,-21.57407 7.13306,-1.85029 16.51121,0.37481 26.06126,6.18339 9.31267,5.66421 22.82745,8.34546 32.70078,6.48763 2.63957,-0.49668 8.62422,-1.46423 13.29922,-2.15012 17.61812,-2.5848 41.31534,-15.04605 53.61345,-28.19277 23.52583,-25.14917 28.92113,-81.56938 10.87797,-113.75406 -11.92061,-21.26353 -21.80977,-28.45394 -54.49142,-39.62074 -27.95594,-9.55209 -77.89726,5.39263 -103.05403,30.83848 -9.49486,9.60397 -9.27421,9.17861 -13.37412,25.78226 -0.88277,3.575 -2.75141,10.325 -4.15253,15 -4.19926,14.01127 -3.34025,34.7748 1.841,44.5 15.06393,28.27494 14.68761,30.62877 -8.71335,54.5 -7.81789,7.975 -16.79322,17.59732 -19.94516,21.38293 -10.70217,12.85375 -16.00236,15.97418 -18.66914,10.99125 -0.77292,-1.44419 -5.48144,-6.50669 -10.46338,-11.25 -18.73456,-17.83714 -21.95547,-27.45005 -14.25493,-42.54435 11.45875,-22.46102 9.81521,-29.71785 -11.39396,-50.30827 -8.93502,-8.67436 -19.86235,-19.55854 -24.28295,-24.18707 -12.75294,-13.3528 -39.26755,-39.80469 -49.20089,-49.08449 -5.00424,-4.675 -13.53965,-12.66218 -18.96759,-17.74929 -5.42793,-5.0871 -13.46897,-13.33213 -17.86897,-18.32228 -11.42785,-12.96061 -15.23631,-14.35575 -25.38412,-9.29889 -8.54225,4.25679 -8.16661,12.57161 0.88155,19.51344 9.33357,7.16079 15.43657,13.10076 26.15305,25.4544 0.90776,1.04644 4.88509,4.60262 8.8385,7.90262 3.95341,3.3 8.83569,7.61597 10.84952,9.59104 2.01382,1.97507 5.74332,4.77391 8.28778,6.21965 3.03682,1.72549 5.7751,4.44278 7.97006,7.90896 1.83908,2.90419 5.38226,7.31923 7.87372,9.81119 2.49147,2.49196 6.32994,6.64535 8.52994,9.22974 6.08437,7.14746 17.63572,18.65583 24.32994,24.23942 8.29111,6.91554 10.35858,13.95548 4.73243,16.11444 -2.04105,0.78323 -11.78656,-4.64345 -13.09776,-7.29335 -0.59298,-1.1984 -4.20261,-5.12161 -8.02138,-8.71826 -11.80613,-11.11937 -17.03118,-16.7571 -21.46471,-23.16003 -3.32338,-4.79964 -9.68185,-10.7209 -13.79844,-12.84968 -1.61667,-0.83601 -3.81349,-2.99897 -4.88182,-4.80657 -1.06833,-1.8076 -4.53959,-5.53655 -7.71391,-8.28655 -3.17432,-2.75 -7.65691,-6.82948 -9.96131,-9.06551 -2.3044,-2.23603 -5.6373,-4.92056 -7.40643,-5.96561 -1.76914,-1.04505 -3.21661,-2.2716 -3.21661,-2.72566 0,-0.45406 -6.3,-7.1518 -14,-14.88386 -7.7,-7.73207 -14,-14.37869 -14,-14.77027 0,-2.11253 -4.37139,-5.08909 -7.47386,-5.08909 -15.01728,0 -19.10242,14.67463 -5.73129,20.58798 6.60392,2.92056 9.6791,5.53756 12.23497,10.41202 1.00936,1.925 6.25538,7.45195 11.65784,12.28212 5.40246,4.83016 11.62033,10.83455 13.8175,13.34307 4.87944,5.57091 66.18694,66.68761 71.09875,70.87748 7.24347,6.17882 4.74816,15.49733 -4.14988,15.49733 -3.1326,0 -8.45403,-4.45 -8.45403,-7.0696 0,-0.50388 -16.89491,-17.90686 -37.54426,-38.67328 -20.64934,-20.76641 -44.38684,-44.69125 -52.75,-53.16629 -19.35476,-19.61369 -26.19427,-23.32958 -32.08963,-17.43421 -5.83937,5.83937 -4.77269,9.42962 5.48068,18.44706 4.00015,3.51797 9.10229,8.38792 11.3381,10.8221 8.85501,9.64066 27.34921,27.76405 31.68257,31.04735 2.52116,1.91022 6.33861,5.90644 8.48323,8.88048 2.14462,2.97404 5.7376,6.81756 7.9844,8.54115 3.45737,2.65226 19.36208,18.92331 32.47497,33.22298 1.95803,2.13524 5.42774,5.10282 7.71047,6.59461 4.10861,2.68504 8.22947,8.96828 8.22947,12.54781 0,6.59072 -10.90928,4.96431 -15.93914,-2.37629 -1.29924,-1.89611 -5.10693,-5.88365 -8.46155,-8.8612 -7.17873,-6.37182 -5.05586,-4.28024 -28.03489,-27.62175 -10.07064,-10.2295 -20.69436,-21.2317 -23.60826,-24.44933 -2.9139,-3.21763 -8.93359,-9.17545 -13.37708,-13.23959 -13.47864,-12.32793 -17.57953,-16.47929 -21.70792,-21.97508 -10.67249,-14.20743 -26.83164,-15.15326 -29.67478,-1.73692 -1.42254,6.71272 0.1138,9.94102 7.50439,15.7689 11.79373,9.29998 107.59239,106.06431 115.81368,116.9811 1.96744,2.6125 3.9711,4.75 4.45258,4.75 0.48147,0 4.05057,2.91384 7.93132,6.47521 10.04637,9.21955 28.79219,8.59028 47.99242,-1.61103 9.62384,-5.11326 10.38664,-4.69891 36.35923,19.75022 12.15799,11.44484 10.21095,14.96689 -26.25,47.48421 -5.775,5.15038 -19.73526,18.59766 -31.02281,29.88285 -30.11593,30.10967 -48.74385,48.01854 -49.94651,48.01854 -1.93361,0 -5.02314,6.43446 -5.02694,10.46942 -0.005,5.21906 13.19217,18.9139 19.3374,20.06676 7.7204,1.44835 9.78451,0.2589 21.37373,-12.31667 10.96855,-11.90207 47.54242,-49.53469 61.42222,-63.20028 4.2004,-4.13558 9.86245,-10.21923 12.58232,-13.51923 2.71988,-3.3 8.32418,-9.40993 12.45402,-13.57761 4.12983,-4.16769 9.39448,-10.13019 11.69922,-13.25 5.21162,-7.05471 5.39526,-7.04602 12.11725,0.57313 3.03055,3.43504 11.09528,11.64754 17.9216,18.25 6.82633,6.60247 21.86847,21.67948 33.42697,33.50448 32.26859,33.01257 69.93494,70.08733 72.16153,71.02815 3.20432,1.35395 7.43251,1.09771 11.1726,-0.67708 z"
       id="path1" />
  </g>
</svg>
